{"title":"Songs of Praise 2","uid":7075921,"size":2108135619,"categoryP":"video","categoryS":"tv_shows","magnet":"?xt=urn:btih:022a1b80b2ad3affdafd518a5b9da5927f67acb2&amp;dn=Songs+of+Praise+2&amp;tr=udp%3A%2F%2Ftracker.openbittorrent.com%3A80&amp;tr=udp%3A%2F%2Fopen.demonii.com%3A1337&amp;tr=udp%3A%2F%2Ftracker.coppersurfer.tk%3A6969&amp;tr=udp%3A%2F%2Fexodus.desync.com%3A6969","seeders":0,"leechers":0,"uploader":"kokyzake","files":4,"time":1330839630,"description":"Initial-Seeding: which gives more receives more...\n\nPack 2:\n\n2011-04-03 Senior School Choir of the Year\n2011-04-10 School Choir of the Year Final (Nothing)\n2011-04-17 Palm Sunday\n\n\nVideo\nID                                       : 0\nFormat                                   : MPEG-4 Visual\nFormat profile                           : Simple@L3\nFormat settings, BVOP                    : No\nFormat settings, QPel                    : No\nFormat settings, GMC                     : No warppoints\nFormat settings, Matrix                  : Default (H.263)\nCodec ID                                 : XVID\nCodec ID/Hint                            : XviD\nDuration                                 : 44mn 12s\nBit rate                                 : 3 109 Kbps\nWidth                                    : 720 pixels\nHeight                                   : 404 pixels\nDisplay aspect ratio                     : 16:9\nFrame rate                               : 29.970 fps\nOriginal frame rate                      : 29.000 fps\nColor space                              : YUV\nChroma subsampling                       : 4:2:0\nBit depth                                : 8 bits\nScan type                                : Progressive\nCompression mode                         : Lossy\nBits/(Pixel*Frame)                       : 0.357\nStream size                              : 983 MiB (96%)\nWriting library                          : XviD 1.2.1 (UTC 2008-12-04)\n\nAudio\nID                                       : 1\nFormat                                   : MPEG Audio\nFormat version                           : Version 1\nFormat profile                           : Layer 3\nMode                                     : Joint stereo\nMode extension                           : MS Stereo\nCodec ID                                 : 55\nCodec ID/Hint                            : MP3\nDuration                                 : 44mn 12s\nBit rate mode                            : Constant\nBit rate                                 : 128 Kbps\nChannel(s)                               : 2 channels\nSampling rate                            : 44.1 KHz\nCompression mode                         : Lossy\nStream size                              : 40.5 MiB (4%)\nAlignment                                : Aligned on interleaves\nInterleave, duration                     : 26 ms (0.78 video frame)\nInterleave, preload duration             : 130 ms\nWriting library                          : LAME3.98\n","torrent":{"xt":"urn:btih:022a1b80b2ad3affdafd518a5b9da5927f67acb2","amp;dn":"Songs+of+Praise+2","amp;tr":["udp%3A%2F%2Ftracker.openbittorrent.com%3A80","udp%3A%2F%2Fopen.demonii.com%3A1337","udp%3A%2F%2Ftracker.coppersurfer.tk%3A6969","udp%3A%2F%2Fexodus.desync.com%3A6969"],"infoHash":"022a1b80b2ad3affdafd518a5b9da5927f67acb2","infoHashBuffer":{"type":"Buffer","data":[2,42,27,128,178,173,58,255,218,253,81,138,91,157,165,146,127,103,172,178]},"announce":[],"urlList":[]}}